<svg width="235" height="49" viewBox="0 0 235 49" fill="none" xmlns="http://www.w3.org/2000/svg">
<path d="M62.9134 16.7727C63.9577 16.7727 64.8969 16.9677 65.7251 17.3608C66.5532 17.7539 67.2554 18.282 67.8315 18.9482C68.4077 19.6143 68.8487 20.3915 69.1548 21.2797C69.4609 22.1679 69.6169 23.1101 69.6169 24.1034C69.6169 25.0966 69.4639 26.0568 69.1548 26.945C68.8487 27.8332 68.4077 28.6104 67.8315 29.2765C67.2554 29.9427 66.5532 30.4678 65.7251 30.8549C64.8939 31.239 63.9577 31.434 62.9134 31.434C61.8692 31.434 60.93 31.242 60.1018 30.8549C59.2706 30.4708 58.5684 29.9427 57.9953 29.2765C57.4222 28.6104 56.9781 27.8332 56.672 26.945C56.3659 26.0568 56.2129 25.1086 56.2129 24.1034C56.2129 23.0981 56.3659 22.1709 56.672 21.2797C56.9781 20.3915 57.4192 19.6143 57.9953 18.9482C58.5714 18.282 59.2736 17.7509 60.1018 17.3608C60.93 16.9677 61.8692 16.7727 62.9134 16.7727ZM62.9134 18.7712C62.1693 18.7712 61.5241 18.9212 60.984 19.2213C60.4409 19.5213 59.9997 19.9234 59.6607 20.4275C59.3216 20.9316 59.0696 21.5018 58.9045 22.1439C58.7425 22.7831 58.6584 23.4372 58.6584 24.1034C58.6584 24.7695 58.7395 25.4237 58.9045 26.0628C59.0666 26.7019 59.3186 27.2751 59.6607 27.7792C59.9997 28.2833 60.4409 28.6854 60.984 28.9855C61.5271 29.2855 62.1693 29.4356 62.9134 29.4356C63.6576 29.4356 64.3027 29.2855 64.8428 28.9855C65.386 28.6854 65.8271 28.2833 66.1661 27.7792C66.5052 27.2751 66.7573 26.7049 66.9193 26.0628C67.0814 25.4237 67.1654 24.7695 67.1654 24.1034C67.1654 23.4372 67.0844 22.7831 66.9193 22.1439C66.7573 21.5048 66.5052 20.9316 66.1661 20.4275C65.8271 19.9234 65.386 19.5243 64.8428 19.2213C64.2997 18.9212 63.6576 18.7712 62.9134 18.7712Z" fill="black"/>
<path d="M70.6173 20.9674H72.7328V22.3387H72.7718C73.0839 21.7506 73.522 21.3305 74.0861 21.0754C74.6473 20.8204 75.2564 20.6943 75.9075 20.6943C76.7057 20.6943 77.3989 20.8354 77.996 21.1144C78.5902 21.3965 79.0853 21.7806 79.4753 22.2697C79.8684 22.7588 80.1625 23.3319 80.3576 23.9831C80.5526 24.6372 80.6516 25.3364 80.6516 26.0806C80.6516 26.7587 80.5646 27.4189 80.3876 28.061C80.2105 28.7001 79.9434 29.2673 79.5834 29.7564C79.2233 30.2455 78.7702 30.6386 78.2211 30.9326C77.672 31.2267 77.0268 31.3737 76.2796 31.3737C75.9525 31.3737 75.6255 31.3437 75.2984 31.2867C74.9713 31.2267 74.6593 31.1337 74.3562 31.0017C74.0561 30.8696 73.7771 30.7046 73.522 30.5005C73.2669 30.2995 73.0539 30.0594 72.8859 29.7864H72.8469V34.8425H70.6113V20.9644L70.6173 20.9674ZM78.4191 26.0415C78.4191 25.5854 78.3591 25.1383 78.2421 24.7092C78.125 24.2771 77.948 23.8961 77.7139 23.563C77.4799 23.2299 77.1858 22.9628 76.8318 22.7588C76.4777 22.5578 76.0726 22.4557 75.6165 22.4557C74.6743 22.4557 73.9661 22.7828 73.489 23.437C73.0119 24.0911 72.7748 24.9583 72.7748 26.0445C72.7748 26.5547 72.8379 27.0288 72.9609 27.4639C73.0839 27.902 73.2699 28.277 73.519 28.5921C73.7681 28.9072 74.0651 29.1532 74.4102 29.3363C74.7553 29.5193 75.1574 29.6093 75.6165 29.6093C76.1266 29.6093 76.5557 29.5043 76.9098 29.2973C77.2639 29.0872 77.5519 28.8172 77.783 28.4841C78.011 28.151 78.176 27.7729 78.2721 27.3468C78.3711 26.9207 78.4191 26.4886 78.4191 26.0445V26.0415Z" fill="black"/>
<path d="M83.6905 26.6117C83.6905 27.0048 83.7444 27.3829 83.8585 27.749C83.9695 28.1151 84.1346 28.4362 84.3596 28.7092C84.5817 28.9823 84.8637 29.2013 85.2028 29.3664C85.5418 29.5284 85.947 29.6124 86.4181 29.6124C87.0722 29.6124 87.5973 29.4714 87.9964 29.1923C88.3955 28.9103 88.6926 28.4902 88.8876 27.929H91.0031C90.8861 28.4782 90.682 28.9673 90.397 29.3994C90.1089 29.8315 89.7638 30.1946 89.3587 30.4856C88.9536 30.7797 88.5005 31.0017 87.9964 31.1518C87.4923 31.3018 86.9672 31.3768 86.4181 31.3768C85.6199 31.3768 84.9147 31.2448 84.3026 30.9837C83.6874 30.7227 83.1683 30.3566 82.7452 29.8855C82.3191 29.4144 82.0011 28.8532 81.785 28.1991C81.569 27.545 81.4609 26.8278 81.4609 26.0446C81.4609 25.3275 81.575 24.6433 81.803 23.9952C82.0311 23.347 82.3582 22.7799 82.7842 22.2908C83.2073 21.8017 83.7205 21.4116 84.3236 21.1235C84.9237 20.8354 85.6049 20.6914 86.3611 20.6914C87.1592 20.6914 87.8734 20.8564 88.5065 21.1925C89.1397 21.5286 89.6648 21.9667 90.0849 22.5158C90.502 23.0649 90.8081 23.6951 90.9971 24.4062C91.1861 25.1204 91.2341 25.8526 91.1441 26.6117H83.6965H83.6905ZM88.9026 25.1414C88.8756 24.7873 88.8006 24.4483 88.6776 24.1212C88.5546 23.7941 88.3835 23.509 88.1674 23.269C87.9514 23.0259 87.6903 22.8309 87.3843 22.6809C87.0782 22.5308 86.7331 22.4558 86.3551 22.4558C85.977 22.4558 85.6079 22.5248 85.2868 22.6629C84.9657 22.8009 84.6927 22.9899 84.4646 23.23C84.2366 23.473 84.0535 23.7551 83.9155 24.0822C83.7775 24.4092 83.7025 24.7603 83.6905 25.1414H88.9056H88.9026Z" fill="black"/>
<path d="M92.2551 20.9675H94.3706V22.4558L94.4096 22.4948C94.7486 21.9337 95.1927 21.4926 95.7419 21.1715C96.291 20.8504 96.8971 20.6914 97.5633 20.6914C98.6735 20.6914 99.5497 20.9795 100.189 21.5526C100.828 22.1287 101.149 22.9899 101.149 24.1392V31.0978H98.9136V24.7273C98.8866 23.9291 98.7186 23.353 98.4035 22.9929C98.0914 22.6328 97.5993 22.4558 96.9331 22.4558C96.5551 22.4558 96.213 22.5248 95.9129 22.6629C95.6128 22.8009 95.3578 22.9899 95.1477 23.23C94.9377 23.473 94.7756 23.7551 94.6586 24.0822C94.5416 24.4092 94.4816 24.7543 94.4816 25.1204V31.0978H92.2461V20.9645L92.2551 20.9675Z" fill="black"/>
<path d="M103.975 17.1055H106.465L108.995 27.8059H109.034L111.857 17.1055H114.366L117.109 27.8059H117.148L119.755 17.1055H122.246L118.384 31.1006H115.896L113.094 20.4002H113.055L110.192 31.1006H107.662L103.978 17.1055H103.975Z" fill="black"/>
<path d="M130.318 28.8448C130.318 29.1178 130.354 29.3159 130.426 29.4329C130.498 29.5499 130.639 29.6099 130.847 29.6099H131.081C131.171 29.6099 131.276 29.5979 131.393 29.5709V31.1193C131.315 31.1463 131.213 31.1733 131.09 31.2063C130.964 31.2393 130.837 31.2693 130.708 31.2933C130.576 31.3203 130.447 31.3383 130.315 31.3533C130.183 31.3653 130.072 31.3713 129.982 31.3713C129.523 31.3713 129.145 31.2813 128.845 31.0983C128.545 30.9152 128.347 30.5942 128.257 30.1381C127.813 30.5702 127.267 30.8822 126.622 31.0803C125.976 31.2783 125.349 31.3743 124.749 31.3743C124.293 31.3743 123.855 31.3113 123.435 31.1883C123.018 31.0653 122.649 30.8822 122.328 30.6392C122.007 30.3991 121.751 30.09 121.562 29.718C121.373 29.3459 121.277 28.9108 121.277 28.4157C121.277 27.7885 121.391 27.2784 121.619 26.8883C121.847 26.4952 122.148 26.1892 122.52 25.9671C122.892 25.7451 123.309 25.586 123.774 25.487C124.239 25.388 124.704 25.313 125.175 25.262C125.58 25.1839 125.964 25.1269 126.33 25.0969C126.697 25.0639 127.021 25.0099 127.3 24.9289C127.582 24.8509 127.804 24.7308 127.966 24.5658C128.128 24.4038 128.212 24.1577 128.212 23.8306C128.212 23.5426 128.143 23.3085 128.005 23.1255C127.867 22.9424 127.699 22.8014 127.495 22.7054C127.291 22.6064 127.066 22.5433 126.82 22.5103C126.571 22.4773 126.336 22.4623 126.114 22.4623C125.487 22.4623 124.971 22.5944 124.566 22.8554C124.161 23.1165 123.933 23.5216 123.879 24.0707H121.643C121.682 23.4165 121.838 22.8764 122.115 22.4443C122.391 22.0122 122.739 21.6671 123.165 21.4061C123.588 21.145 124.068 20.962 124.605 20.857C125.142 20.7519 125.688 20.7009 126.252 20.7009C126.748 20.7009 127.24 20.7519 127.723 20.857C128.206 20.962 128.641 21.133 129.025 21.3671C129.409 21.6011 129.721 21.9072 129.955 22.2793C130.189 22.6514 130.309 23.1045 130.309 23.6416V28.8568L130.318 28.8448ZM128.083 26.0241C127.744 26.2462 127.324 26.3812 126.829 26.4262C126.33 26.4712 125.835 26.5402 125.34 26.6333C125.106 26.6723 124.875 26.7293 124.653 26.7983C124.431 26.8703 124.236 26.9693 124.065 27.0924C123.894 27.2154 123.762 27.3804 123.663 27.5815C123.564 27.7855 123.516 28.0286 123.516 28.3166C123.516 28.5657 123.588 28.7758 123.732 28.9438C123.876 29.1148 124.05 29.2469 124.251 29.3459C124.452 29.4449 124.674 29.5109 124.917 29.5529C125.157 29.5919 125.379 29.6129 125.574 29.6129C125.823 29.6129 126.09 29.5799 126.378 29.5139C126.667 29.4479 126.937 29.3369 127.192 29.1808C127.447 29.0248 127.66 28.8238 127.828 28.5837C127.999 28.3407 128.083 28.0436 128.083 27.6925V26.0271V26.0241Z" fill="black"/>
<path d="M132.199 17.1055H134.435V31.1006H132.199V17.1055Z" fill="black"/>
<path d="M135.941 17.1055H138.177V31.1006H135.941V17.1055Z" fill="black"/>
<path d="M141.372 26.6117C141.372 27.0048 141.426 27.3829 141.54 27.749C141.651 28.1151 141.816 28.4362 142.041 28.7092C142.263 28.9823 142.545 29.2013 142.884 29.3664C143.224 29.5284 143.629 29.6124 144.1 29.6124C144.754 29.6124 145.279 29.4714 145.678 29.1923C146.077 28.9103 146.374 28.4902 146.569 27.929H148.685C148.568 28.4782 148.364 28.9673 148.079 29.3994C147.791 29.8315 147.445 30.1946 147.04 30.4856C146.635 30.7797 146.182 31.0017 145.678 31.1518C145.174 31.3018 144.649 31.3768 144.1 31.3768C143.302 31.3768 142.596 31.2448 141.984 30.9837C141.369 30.7227 140.85 30.3566 140.427 29.8855C140.001 29.4144 139.683 28.8532 139.467 28.1991C139.251 27.545 139.143 26.8278 139.143 26.0446C139.143 25.3275 139.257 24.6433 139.485 23.9952C139.713 23.347 140.04 22.7799 140.466 22.2908C140.889 21.8017 141.402 21.4116 142.005 21.1235C142.605 20.8354 143.287 20.6914 144.043 20.6914C144.841 20.6914 145.555 20.8564 146.188 21.1925C146.821 21.5286 147.346 21.9667 147.767 22.5158C148.184 23.0649 148.49 23.6951 148.679 24.4062C148.868 25.1204 148.916 25.8526 148.826 26.6117H141.378H141.372ZM146.584 25.1414C146.557 24.7873 146.482 24.4483 146.359 24.1212C146.236 23.7941 146.065 23.509 145.849 23.269C145.633 23.0259 145.372 22.8309 145.066 22.6809C144.76 22.5308 144.415 22.4558 144.037 22.4558C143.659 22.4558 143.29 22.5248 142.968 22.6629C142.647 22.8009 142.374 22.9899 142.146 23.23C141.918 23.473 141.735 23.7551 141.597 24.0822C141.459 24.4092 141.384 24.7603 141.372 25.1414H146.587H146.584Z" fill="black"/>
<path d="M148.916 20.9678H150.602V17.9312H152.838V20.9678H154.857V22.6332H152.838V28.0434C152.838 28.2775 152.847 28.4815 152.868 28.6526C152.886 28.8236 152.934 28.9646 153.006 29.0847C153.078 29.2017 153.186 29.2917 153.33 29.3487C153.474 29.4087 153.669 29.4357 153.918 29.4357C154.074 29.4357 154.23 29.4357 154.389 29.4267C154.548 29.4177 154.701 29.3967 154.86 29.3577V31.0831C154.611 31.1101 154.371 31.1341 154.134 31.1611C153.9 31.1881 153.657 31.2001 153.408 31.2001C152.82 31.2001 152.346 31.1431 151.986 31.0351C151.626 30.9241 151.347 30.762 151.142 30.546C150.938 30.3299 150.803 30.0599 150.731 29.7328C150.659 29.4057 150.617 29.0337 150.605 28.6166V22.6392H148.919V20.9738L148.916 20.9678Z" fill="black"/>
<path d="M160.698 26.435C160.698 26.9721 160.788 27.4283 160.971 27.8063C161.154 28.1844 161.409 28.4965 161.736 28.7365C162.063 28.9796 162.438 29.1536 162.864 29.2647C163.287 29.3757 163.749 29.4297 164.244 29.4297C164.781 29.4297 165.238 29.3667 165.616 29.2437C165.994 29.1206 166.303 28.9586 166.537 28.7635C166.771 28.5685 166.942 28.3435 167.047 28.0884C167.152 27.8333 167.203 27.5753 167.203 27.3142C167.203 26.7771 167.083 26.384 166.84 26.129C166.597 25.8739 166.333 25.6939 166.045 25.5888C165.547 25.4058 164.97 25.2318 164.31 25.0697C163.65 24.9077 162.837 24.6946 161.871 24.4336C161.271 24.2775 160.77 24.0705 160.37 23.8154C159.971 23.5604 159.656 23.2753 159.419 22.9632C159.185 22.6512 159.017 22.3151 158.918 21.964C158.819 21.6099 158.771 21.2529 158.771 20.8868C158.771 20.1816 158.918 19.5695 159.212 19.0534C159.506 18.5372 159.896 18.1111 160.379 17.7691C160.863 17.43 161.412 17.1779 162.027 17.0129C162.642 16.8509 163.263 16.7668 163.89 16.7668C164.622 16.7668 165.313 16.8629 165.958 17.0519C166.606 17.241 167.173 17.526 167.662 17.9041C168.151 18.2822 168.541 18.7503 168.829 19.3054C169.117 19.8605 169.261 20.5057 169.261 21.2349H166.81C166.744 20.3347 166.438 19.6955 165.889 19.3234C165.34 18.9513 164.64 18.7653 163.791 18.7653C163.503 18.7653 163.209 18.7953 162.909 18.8523C162.609 18.9123 162.333 19.0084 162.087 19.1464C161.838 19.2844 161.634 19.4705 161.469 19.7045C161.307 19.9386 161.223 20.2326 161.223 20.5867C161.223 21.0848 161.376 21.4719 161.685 21.754C161.991 22.036 162.393 22.2461 162.891 22.3901C162.942 22.4021 163.149 22.4591 163.509 22.5582C163.869 22.6572 164.271 22.7652 164.715 22.8822C165.16 22.9993 165.595 23.1133 166.018 23.2243C166.441 23.3353 166.747 23.4163 166.93 23.4704C167.386 23.6144 167.785 23.8094 168.124 24.0585C168.463 24.3075 168.748 24.5926 168.976 24.9107C169.204 25.2288 169.375 25.5738 169.486 25.9399C169.597 26.306 169.655 26.6721 169.655 27.0382C169.655 27.8213 169.495 28.4935 169.174 29.0486C168.853 29.6037 168.433 30.0568 167.911 30.4109C167.389 30.765 166.795 31.0231 166.129 31.1851C165.463 31.3471 164.781 31.4312 164.091 31.4312C163.293 31.4312 162.543 31.3321 161.838 31.1371C161.133 30.942 160.517 30.642 159.995 30.2369C159.473 29.8318 159.056 29.3127 158.741 28.6795C158.429 28.0464 158.264 27.2962 158.252 26.435H160.704H160.698Z" fill="black"/>
<path d="M169.871 20.9678H171.557V17.9312H173.793V20.9678H175.812V22.6332H173.793V28.0434C173.793 28.2775 173.802 28.4815 173.823 28.6526C173.841 28.8236 173.889 28.9646 173.961 29.0847C174.033 29.2017 174.141 29.2917 174.285 29.3487C174.429 29.4087 174.624 29.4357 174.873 29.4357C175.029 29.4357 175.185 29.4357 175.344 29.4267C175.503 29.4177 175.656 29.3967 175.815 29.3577V31.0831C175.566 31.1101 175.326 31.1341 175.089 31.1611C174.855 31.1881 174.612 31.2001 174.363 31.2001C173.775 31.2001 173.301 31.1431 172.941 31.0351C172.581 30.9241 172.302 30.762 172.098 30.546C171.894 30.3299 171.759 30.0599 171.687 29.7328C171.615 29.4057 171.572 29.0337 171.56 28.6166V22.6392H169.874V20.9738L169.871 20.9678Z" fill="black"/>
<path d="M185.314 28.8448C185.314 29.1178 185.351 29.3159 185.423 29.4329C185.495 29.5499 185.636 29.6099 185.843 29.6099H186.077C186.167 29.6099 186.272 29.5979 186.389 29.5709V31.1193C186.311 31.1463 186.209 31.1733 186.086 31.2063C185.96 31.2393 185.834 31.2693 185.705 31.2933C185.573 31.3203 185.444 31.3383 185.311 31.3533C185.179 31.3653 185.068 31.3713 184.978 31.3713C184.519 31.3713 184.141 31.2813 183.841 31.0983C183.541 30.9152 183.343 30.5942 183.253 30.1381C182.809 30.5702 182.263 30.8822 181.618 31.0803C180.973 31.2783 180.345 31.3743 179.745 31.3743C179.289 31.3743 178.851 31.3113 178.431 31.1883C178.014 31.0653 177.645 30.8822 177.324 30.6392C177.003 30.3991 176.748 30.09 176.559 29.718C176.369 29.3459 176.273 28.9108 176.273 28.4157C176.273 27.7885 176.387 27.2784 176.616 26.8883C176.844 26.4952 177.144 26.1892 177.516 25.9671C177.888 25.7451 178.305 25.586 178.77 25.487C179.235 25.388 179.7 25.313 180.171 25.262C180.576 25.1839 180.961 25.1269 181.327 25.0969C181.693 25.0639 182.017 25.0099 182.296 24.9289C182.578 24.8509 182.8 24.7308 182.962 24.5658C183.124 24.4038 183.208 24.1577 183.208 23.8306C183.208 23.5426 183.139 23.3085 183.001 23.1255C182.863 22.9424 182.695 22.8014 182.491 22.7054C182.287 22.6064 182.062 22.5433 181.816 22.5103C181.567 22.4773 181.333 22.4623 181.111 22.4623C180.483 22.4623 179.967 22.5944 179.562 22.8554C179.157 23.1165 178.929 23.5216 178.875 24.0707H176.64C176.679 23.4165 176.835 22.8764 177.111 22.4443C177.387 22.0122 177.735 21.6671 178.161 21.4061C178.584 21.145 179.064 20.962 179.601 20.857C180.138 20.7519 180.684 20.7009 181.249 20.7009C181.744 20.7009 182.236 20.7519 182.719 20.857C183.202 20.962 183.637 21.133 184.021 21.3671C184.405 21.6011 184.717 21.9072 184.951 22.2793C185.185 22.6514 185.306 23.1045 185.306 23.6416V28.8568L185.314 28.8448ZM183.079 26.0241C182.74 26.2462 182.32 26.3812 181.825 26.4262C181.327 26.4712 180.831 26.5402 180.336 26.6333C180.102 26.6723 179.871 26.7293 179.649 26.7983C179.427 26.8703 179.232 26.9693 179.061 27.0924C178.89 27.2154 178.758 27.3804 178.659 27.5815C178.56 27.7855 178.512 28.0286 178.512 28.3166C178.512 28.5657 178.584 28.7758 178.728 28.9438C178.872 29.1148 179.046 29.2469 179.247 29.3459C179.448 29.4449 179.67 29.5109 179.913 29.5529C180.153 29.5919 180.375 29.6129 180.57 29.6129C180.819 29.6129 181.087 29.5799 181.375 29.5139C181.663 29.4479 181.933 29.3369 182.188 29.1808C182.443 29.0248 182.656 28.8238 182.824 28.5837C182.995 28.3407 183.079 28.0436 183.079 27.6925V26.0271V26.0241Z" fill="black"/>
<path d="M187.136 20.9675H189.251V22.4558L189.29 22.4948C189.63 21.9337 190.074 21.4926 190.623 21.1715C191.172 20.8504 191.778 20.6914 192.444 20.6914C193.554 20.6914 194.431 20.9795 195.07 21.5526C195.709 22.1287 196.03 22.9899 196.03 24.1392V31.0978H193.794V24.7273C193.767 23.9291 193.599 23.353 193.284 22.9929C192.972 22.6328 192.48 22.4558 191.814 22.4558C191.436 22.4558 191.094 22.5248 190.794 22.6629C190.494 22.8009 190.239 22.9899 190.029 23.23C189.819 23.473 189.657 23.7551 189.54 24.0822C189.422 24.4092 189.362 24.7543 189.362 25.1204V31.0978H187.127V20.9645L187.136 20.9675Z" fill="black"/>
<path d="M207.346 31.0982H205.23V29.7269H205.191C204.891 30.315 204.453 30.7351 203.877 30.9902C203.301 31.2452 202.695 31.3712 202.053 31.3712C201.254 31.3712 200.561 31.2302 199.964 30.9511C199.37 30.6691 198.878 30.288 198.485 29.8049C198.092 29.3218 197.798 28.7487 197.603 28.0885C197.408 27.4284 197.309 26.7202 197.309 25.961C197.309 25.0458 197.432 24.2566 197.681 23.5905C197.93 22.9243 198.26 22.3752 198.671 21.9431C199.082 21.511 199.553 21.196 200.081 20.9919C200.609 20.7909 201.149 20.6888 201.699 20.6888C202.014 20.6888 202.332 20.7188 202.659 20.7759C202.986 20.8359 203.298 20.9289 203.598 21.0609C203.898 21.1929 204.177 21.358 204.432 21.562C204.687 21.7661 204.9 22.0031 205.068 22.2762H205.107V17.103H207.343V31.0982H207.346ZM199.544 26.1411C199.544 26.5732 199.598 26.9963 199.712 27.4164C199.823 27.8334 199.994 28.2055 200.222 28.5326C200.45 28.8597 200.741 29.1207 201.095 29.3158C201.45 29.5108 201.867 29.6098 202.35 29.6098C202.833 29.6098 203.274 29.5048 203.634 29.2978C203.994 29.0877 204.288 28.8147 204.516 28.4756C204.744 28.1365 204.915 27.7524 205.026 27.3293C205.137 26.9062 205.191 26.4711 205.191 26.027C205.191 24.9048 204.939 24.0286 204.438 23.4014C203.934 22.7743 203.253 22.4622 202.389 22.4622C201.867 22.4622 201.425 22.5703 201.065 22.7863C200.705 23.0024 200.411 23.2844 200.183 23.6295C199.955 23.9746 199.79 24.3677 199.694 24.8058C199.595 25.2439 199.547 25.691 199.547 26.1471L199.544 26.1411Z" fill="black"/>
<path d="M217.674 28.8448C217.674 29.1178 217.71 29.3159 217.782 29.4329C217.854 29.5499 217.995 29.6099 218.202 29.6099H218.436C218.526 29.6099 218.631 29.5979 218.748 29.5709V31.1193C218.67 31.1463 218.568 31.1733 218.445 31.2063C218.319 31.2393 218.193 31.2693 218.064 31.2933C217.932 31.3203 217.803 31.3383 217.671 31.3533C217.539 31.3653 217.428 31.3713 217.338 31.3713C216.879 31.3713 216.501 31.2813 216.201 31.0983C215.9 30.9152 215.702 30.5942 215.612 30.1381C215.168 30.5702 214.622 30.8822 213.977 31.0803C213.332 31.2783 212.705 31.3743 212.105 31.3743C211.648 31.3743 211.21 31.3113 210.79 31.1883C210.373 31.0653 210.004 30.8822 209.683 30.6392C209.362 30.3991 209.107 30.09 208.918 29.718C208.729 29.3459 208.633 28.9108 208.633 28.4157C208.633 27.7885 208.747 27.2784 208.975 26.8883C209.203 26.4952 209.503 26.1892 209.875 25.9671C210.247 25.7451 210.664 25.586 211.129 25.487C211.594 25.388 212.06 25.313 212.531 25.262C212.936 25.1839 213.32 25.1269 213.686 25.0969C214.052 25.0639 214.376 25.0099 214.655 24.9289C214.937 24.8509 215.159 24.7308 215.321 24.5658C215.483 24.4038 215.567 24.1577 215.567 23.8306C215.567 23.5426 215.498 23.3085 215.36 23.1255C215.222 22.9424 215.054 22.8014 214.85 22.7054C214.646 22.6064 214.421 22.5433 214.175 22.5103C213.926 22.4773 213.692 22.4623 213.47 22.4623C212.843 22.4623 212.327 22.5944 211.922 22.8554C211.516 23.1165 211.288 23.5216 211.234 24.0707H208.999C209.038 23.4165 209.194 22.8764 209.47 22.4443C209.746 22.0122 210.094 21.6671 210.52 21.4061C210.943 21.145 211.423 20.962 211.961 20.857C212.498 20.7519 213.044 20.7009 213.608 20.7009C214.103 20.7009 214.595 20.7519 215.078 20.857C215.561 20.962 215.996 21.133 216.381 21.3671C216.765 21.6011 217.077 21.9072 217.311 22.2793C217.545 22.6514 217.665 23.1045 217.665 23.6416V28.8568L217.674 28.8448ZM215.438 26.0241C215.099 26.2462 214.679 26.3812 214.184 26.4262C213.686 26.4712 213.191 26.5402 212.696 26.6333C212.462 26.6723 212.231 26.7293 212.009 26.7983C211.787 26.8703 211.591 26.9693 211.42 27.0924C211.249 27.2154 211.117 27.3804 211.018 27.5815C210.919 27.7855 210.871 28.0286 210.871 28.3166C210.871 28.5657 210.943 28.7758 211.087 28.9438C211.231 29.1148 211.405 29.2469 211.606 29.3459C211.808 29.4449 212.03 29.5109 212.273 29.5529C212.513 29.5919 212.735 29.6129 212.93 29.6129C213.179 29.6129 213.446 29.5799 213.734 29.5139C214.022 29.4479 214.292 29.3369 214.547 29.1808C214.802 29.0248 215.015 28.8238 215.183 28.5837C215.354 28.3407 215.438 28.0436 215.438 27.6925V26.0271V26.0241Z" fill="black"/>
<path d="M219.495 20.9674H221.593V22.9268H221.632C221.698 22.6538 221.824 22.3837 222.013 22.1227C222.202 21.8616 222.43 21.6215 222.7 21.4085C222.967 21.1924 223.264 21.0184 223.591 20.8894C223.918 20.7604 224.251 20.6943 224.59 20.6943C224.851 20.6943 225.031 20.7003 225.13 20.7123C225.229 20.7243 225.329 20.7393 225.434 20.7513V22.9088C225.278 22.8818 225.115 22.8608 224.953 22.8398C224.791 22.8188 224.629 22.8098 224.473 22.8098C224.095 22.8098 223.738 22.8848 223.405 23.0349C223.072 23.1849 222.781 23.4069 222.532 23.701C222.283 23.9951 222.088 24.3582 221.944 24.7873C221.8 25.2194 221.728 25.7145 221.728 26.2756V31.0977H219.492V20.9644L219.495 20.9674Z" fill="black"/>
<path d="M235 31.0982H232.885V29.7269H232.846C232.546 30.315 232.108 30.7351 231.531 30.9902C230.955 31.2452 230.349 31.3712 229.707 31.3712C228.909 31.3712 228.216 31.2302 227.619 30.9511C227.024 30.6691 226.532 30.288 226.139 29.8049C225.746 29.3218 225.452 28.7487 225.257 28.0885C225.062 27.4284 224.963 26.7202 224.963 25.961C224.963 25.0458 225.086 24.2566 225.335 23.5905C225.584 22.9243 225.914 22.3752 226.325 21.9431C226.736 21.511 227.207 21.196 227.736 20.9919C228.264 20.7909 228.804 20.6888 229.353 20.6888C229.668 20.6888 229.986 20.7188 230.313 20.7759C230.64 20.8359 230.952 20.9289 231.252 21.0609C231.552 21.1929 231.831 21.358 232.086 21.562C232.342 21.7661 232.555 22.0031 232.723 22.2762H232.762V17.103H234.997V31.0982H235ZM227.198 26.1411C227.198 26.5732 227.252 26.9963 227.366 27.4164C227.477 27.8334 227.649 28.2055 227.877 28.5326C228.105 28.8597 228.396 29.1207 228.75 29.3158C229.104 29.5108 229.521 29.6098 230.004 29.6098C230.487 29.6098 230.928 29.5048 231.288 29.2978C231.648 29.0877 231.942 28.8147 232.171 28.4756C232.399 28.1365 232.57 27.7524 232.681 27.3293C232.792 26.9062 232.846 26.4711 232.846 26.027C232.846 24.9048 232.594 24.0286 232.093 23.4014C231.588 22.7743 230.907 22.4622 230.043 22.4622C229.521 22.4622 229.08 22.5703 228.72 22.7863C228.36 23.0024 228.066 23.2844 227.838 23.6295C227.61 23.9746 227.444 24.3677 227.348 24.8058C227.249 25.2439 227.201 25.691 227.201 26.1471L227.198 26.1411Z" fill="black"/>
<path d="M9.89453 3.39233L17.6757 11.1735L24.296 4.55325L30.9163 11.1735L38.6975 3.39233" stroke="black" stroke-width="2.40025"/>
<path d="M45.3047 9.99902L37.5235 17.7802L44.1438 24.4005L37.5235 31.0208L45.3047 38.802" stroke="black" stroke-width="2.40025"/>
<path d="M38.6973 45.4082L30.9161 37.627L24.2958 44.2473L17.6755 37.627L9.8943 45.4082" stroke="black" stroke-width="2.40025"/>
<path d="M3.28906 38.8015L11.0703 31.0203L4.44998 24.4L11.0703 17.7797L3.28907 9.99855" stroke="black" stroke-width="2.40025"/>
</svg>
